<svg width="124" height="41" viewBox="0 0 124 41" fill="none" xmlns="http://www.w3.org/2000/svg">
<path d="M50.9613 19.351C49.6921 17.7794 47.9229 17.0031 45.6344 17.0031C43.4421 17.0031 41.5767 17.8362 39.9998 19.4835C38.4613 21.1308 37.6729 23.1189 37.6729 25.5046C37.6729 27.8904 38.4613 29.9164 39.9998 31.5637C41.5767 33.211 43.4421 34.0062 45.6344 34.0062C47.9229 34.0062 49.6921 33.2299 50.9613 31.6583V33.5518H55.1921V17.4575H50.9613V19.351ZM49.6536 28.7803C48.8075 29.6134 47.7305 30.03 46.4229 30.03C45.1152 30.03 44.0382 29.6134 43.1921 28.7803C42.3459 27.9093 41.9229 26.8111 41.9229 25.5046C41.9229 24.1982 42.3459 23.081 43.1921 22.2479C44.0382 21.3769 45.1152 20.9604 46.4229 20.9604C47.7305 20.9604 48.8075 21.3769 49.6536 22.2479C50.5382 23.081 50.9613 24.1792 50.9613 25.5046C50.9613 26.8301 50.5382 27.9093 49.6536 28.7803Z" fill="#00C65E"/>
<path d="M65.9232 16.9842C63.404 16.9842 61.3078 17.7984 59.7117 19.4267C58.1155 21.0361 57.2886 23.0621 57.2886 25.4857C57.2886 27.9283 58.1155 29.9543 59.7501 31.5637C61.3847 33.1731 63.5386 33.9873 66.2501 33.9873C69.3847 33.9873 71.7694 32.8323 73.3847 30.5412L69.9809 28.6099C69.154 29.6702 67.9232 30.2193 66.327 30.2193C63.8078 30.2193 62.2693 29.2158 61.7117 27.1898H74.0386C74.1347 26.5839 74.2117 26.0348 74.2117 25.4857C74.2117 23.0621 73.4232 21.074 71.8655 19.4267C70.3078 17.7984 68.327 16.9842 65.9232 16.9842ZM61.654 23.9899C62.154 21.9261 63.6732 20.7332 65.9424 20.7332C67.8655 20.7332 69.5001 21.7935 70.0001 23.9899H61.654Z" fill="#00C65E"/>
<path d="M89.173 19.4456C87.923 17.7983 86.1922 17.0031 83.9422 17.0031C81.6538 17.0031 79.7307 17.8173 78.1538 19.4267C76.5768 21.0361 75.8076 22.9674 75.8076 25.2585C75.8076 27.5496 76.5961 29.4998 78.1345 31.1282C79.7115 32.6997 81.6345 33.5139 83.9615 33.5139C86.2115 33.5139 87.9422 32.6997 89.1922 31.0714V32.624C89.1922 35.1612 87.5576 36.5813 84.9038 36.5813C82.8845 36.5813 81.4422 35.8428 80.6153 34.3281L77.0192 36.3541C78.4615 38.9292 81.2307 40.2735 84.7692 40.2735C87.1153 40.2735 89.1153 39.6297 90.7884 38.3043C92.4615 36.9789 93.3076 35.0855 93.3076 32.6051V17.4575H89.1922V19.4456H89.173ZM84.5769 29.6513C81.923 29.6513 79.9999 27.8147 79.9999 25.2396C79.9999 23.9899 80.423 22.9296 81.2692 22.1154C82.1538 21.2823 83.2307 20.8657 84.5769 20.8657C85.923 20.8657 86.9999 21.2823 87.8461 22.1154C88.7307 22.9296 89.1538 23.9899 89.1538 25.2396C89.173 27.8147 87.2307 29.6513 84.5769 29.6513Z" fill="#00C65E"/>
<path d="M100.673 20.222V17.4386H96.4614V33.5329H100.673V25.8455C100.673 24.2929 101.173 23.2136 102.173 22.532C103.192 21.8503 104.365 21.6042 105.635 21.7556V17.1167C103.423 17.1167 101.461 18.1581 100.673 20.222Z" fill="#00C65E"/>
<path d="M121.481 19.4646C119.808 17.8173 117.75 16.9842 115.327 16.9842C112.904 16.9842 110.846 17.8173 109.173 19.4646C107.5 21.1119 106.692 23.1 106.692 25.4857C106.692 27.8715 107.519 29.8975 109.173 31.5447C110.827 33.192 112.904 33.9873 115.327 33.9873C117.75 33.9873 119.808 33.1731 121.481 31.5447C123.154 29.9164 124 27.8715 124 25.4857C124 23.1 123.154 21.1119 121.481 19.4646ZM118.5 28.6856C117.654 29.5188 116.596 29.9353 115.327 29.9353C114.058 29.9353 113 29.5188 112.154 28.6856C111.327 27.8525 110.904 26.7922 110.904 25.5047C110.904 24.2171 111.327 23.1568 112.154 22.3237C113 21.4906 114.058 21.074 115.327 21.074C116.596 21.074 117.654 21.4906 118.5 22.3237C119.346 23.1568 119.769 24.2171 119.769 25.5047C119.769 26.7922 119.346 27.8525 118.5 28.6856Z" fill="#00C65E"/>
<path d="M17.7115 0H2.71154V1.34434C2.71154 5.90754 5.28846 9.86483 9.07693 11.9287C3.75 14.1819 0 19.4078 0 25.4857C0 33.6465 6.71154 40.2546 15 40.2546C20.0769 40.2546 24.5577 37.7742 27.2692 33.9683V38.9102H30V12.0802C29.9808 5.41524 24.5 0 17.7115 0ZM15 37.5659C8.23077 37.5659 2.73077 32.1506 2.73077 25.4857C2.73077 18.8208 8.21154 13.4245 15 13.4245C21.7692 13.4245 27.2692 18.8397 27.2692 25.5047C27.2692 32.1696 21.7692 37.5659 15 37.5659ZM27.25 17.022C24.5385 13.2352 20.0577 10.7358 14.9808 10.7358C10.1731 10.7358 6.19231 7.23295 5.53846 2.68869H17.7115C22.9808 2.68869 27.25 6.89213 27.25 12.0802V17.022Z" fill="#00C65E"/>
</svg>
